<?xml version="1.0" standalone="no"?><!DOCTYPE svg PUBLIC "-//W3C//DTD SVG 1.1//EN" "http://www.w3.org/Graphics/SVG/1.1/DTD/svg11.dtd"><svg class="icon" width="200px" height="182.69px" viewBox="0 0 1121 1024" version="1.1" xmlns="http://www.w3.org/2000/svg"><path d="M0 0h1121.52381v1024H0z" fill="#FFFFFF" fill-opacity=".02" /><path d="M162.279619 963.779048h-31.402667C60.17219 963.779048 0 907.410286 0 835.730286v-345.721905c0-69.144381 57.58781-128.048762 130.876952-128.048762h34.03581c70.704762 0 130.876952 56.368762 130.876952 128.048762v345.721905a133.948952 133.948952 0 0 1-133.510095 128.048762zM130.876952 441.295238c-28.769524 0-52.321524 23.064381-52.321523 51.2v345.721905c0 28.184381 23.552 51.2 52.321523 51.2h34.03581c28.769524 0 52.370286-23.015619 52.370286-51.2V490.057143c0-28.135619-23.552-51.2-52.370286-51.2h-34.03581v2.535619z" fill="#33CC99" /><path d="M1070.665143 418.328381c-31.451429-33.304381-75.922286-51.2-123.075048-51.2l-191.049143-2.584381c10.435048-30.72 18.285714-74.264381 13.068191-120.344381-13.06819-120.393143-104.69181-202.361905-175.396572-194.657524-36.62019 2.584381-75.922286 30.72-70.704761 99.913143 0 2.535619 13.165714 151.064381-88.990477 263.753143-31.402667 30.72-47.104 71.68-47.104 115.224381v266.337524c0 92.16 75.922286 166.424381 170.179048 166.424381l329.825524 2.584381c138.727619 0 225.084952-161.353143 232.984381-430.226286-2.633143-40.96-18.334476-84.504381-49.737143-115.224381z m-185.880381 468.601905l-329.825524-2.535619c-49.737143 0-91.623619-40.96-91.623619-89.624381v-263.801905c0-23.015619 10.48381-46.08 26.185143-63.975619 125.659429-138.288762 109.958095-315.001905 109.958095-322.657524v-17.944381c5.217524 0 13.06819 2.535619 26.136381 12.775619 26.185143 17.944381 55.003429 58.904381 62.854095 115.273143 7.801905 66.56-23.552 130.584381-23.552 130.584381a36.425143 36.425143 0 0 0-5.266285 17.944381v5.12c2.633143 20.48 18.334476 35.84 39.253333 35.84l246.101333 2.535619c26.185143 0 49.737143 10.24 68.022857 28.184381 15.750095 17.944381 26.185143 38.424381 23.600762 61.44-5.266286 210.017524-65.438476 350.841905-151.844571 350.841905z" fill="#543E3E" /></svg>