<?xml version="1.0" standalone="no"?><!DOCTYPE svg PUBLIC "-//W3C//DTD SVG 1.1//EN" "http://www.w3.org/Graphics/SVG/1.1/DTD/svg11.dtd"><svg class="icon" width="200px" height="200.00px" viewBox="0 0 1024 1024" version="1.1" xmlns="http://www.w3.org/2000/svg"><path d="M413.1 847.58c16.8 12.9 13.8 39-5.5 47.7l-169.8 59.1c-19.4 8.5-42.3 4.6-57.2-10.5-11.4-11.5-18.2-27.6-17.4-45l12.9-173.9c1.1-24.1 28.8-37 48-22.3l189 144.9z" fill="#EDB74B" opacity=".42" /><path d="M397.7 851.38c15.4 11.8 13.4 34.7-3.6 41.9l-150.6 47.3c-17.2 6.9-37.8 2.9-51.5-10.8-10.5-10.5-17-24.8-16.8-40.1l6.7-152.9c0.3-21.2 24.8-31.8 42.4-18.4l173.4 133z" fill="#EDB74B" /><path d="M388 843.38c13.6 10.4 12.5 30-2.1 35.6l-129.4 36.7c-14.7 5.5-32.7 1.5-44.9-10.5-9.4-9.2-15.4-21.6-15.6-34.7l2.1-130.3c-0.3-18.1 20.7-26.6 36.3-14.6L388 843.38z" fill="#FF9A2C" opacity=".71" /><path d="M266.8 703.98l-158.6-121.3c-0.4-0.3-0.9-0.7-1.3-1-25.3-20.8-20.2-61.1 9.2-75.7l134.6-67.1s20 63 16.1 265.1M401.1 811.98l158.6 121.3c11.2 8.5 24.9 11.5 37.9 9.2 16.9-2.9 30-16.3 33.3-33.1l30.2-151.3s-66-2.9-260 53.9" fill="#5A6EFF" /><path d="M820.8 120.68c-35.8-27.4-348.8-35-486.7 145.3-91.1 119.1-130.5 266.7-109.1 382 11 59.3 183.1 190.9 243.2 185.9 116.9-9.6 248.9-86.4 340-205.5 137.9-180.3 43.1-484.5 12.6-507.7z" fill="#5A6EFF" /><path d="M880.7 404.28c6.3-34.4-18.4-257.4-59.9-283.6-18.6-11.7-100.8-22-197.6-6.4 0 0 231.3 433.3 257.5 290z" fill="#BBC6FC" opacity=".16" /><path d="M681.1 565.58L424 369.08c-12.9-9.9-15.4-28.6-5.5-41.5l31.3-40.9c42.6-55.7 123-66.5 178.8-23.9l96.5 73.8c58.4 44.7 69.6 129.2 24.9 187.7l-27.4 35.8c-9.8 12.9-28.5 15.4-41.5 5.5z" fill="#445EE0" /><path d="M671.3 540.48l-216.4-165.4c-12.9-9.9-15.4-28.6-5.5-41.5l14.3-18.7c42.6-55.7 123-66.5 178.8-23.9l55.7 42.6c58.5 44.7 69.8 129.2 25.1 187.7l-10.4 13.6c-10 13-28.7 15.5-41.6 5.6z" fill="#E6EBFC" /><path d="M613.9 709.48c-82.1 42.2-176 50-246.6 4.4-62.5-56.2-79.6-148.9-60.4-239.2 34.3-161.4 29.6-211.8 29.6-211.8-91.1 119.1-130.7 266.5-109.5 381.7 5.5 29.8 51.5 77.7 103.6 117.3 52 39.9 110.3 71.8 140.5 69.2 116.6-9.8 248.5-86.7 339.6-205.8-0.1 0.1-50 8.7-196.8 84.2z" fill="#B1BEFC" opacity=".12" /><path d="M669.6 499.08l-172.4-131.8c-10.3-7.9-15.9-18-12.5-22.5l5-6.5c14.8-19.4 63.2-7.5 107.6 26.5l44.4 33.9c46.6 35.6 72 81.4 56.5 101.8l-3.6 4.7c-3.5 4.6-14.7 1.8-25-6.1z" fill="#B1BEFC" opacity=".7" /></svg>