<?xml version="1.0" standalone="no"?><!DOCTYPE svg PUBLIC "-//W3C//DTD SVG 1.1//EN" "http://www.w3.org/Graphics/SVG/1.1/DTD/svg11.dtd"><svg t="1600865169673" class="icon" viewBox="0 0 1024 1024" version="1.1" xmlns="http://www.w3.org/2000/svg" p-id="5432" xmlns:xlink="http://www.w3.org/1999/xlink" width="200" height="200"><defs><style type="text/css"></style></defs><path d="M248.832 842.752c-30.72 0-55.296-24.576-55.296-55.296V106.496c0-30.72 24.576-55.296 55.296-55.296 30.72 0 55.296 24.576 55.296 55.296V788.48c0 29.696-24.576 54.272-55.296 54.272z" fill="#FDC300" p-id="5433"></path><path d="M248.832 858.112c-38.912 0-70.656-31.744-70.656-70.656V106.496c0-38.912 31.744-70.656 70.656-70.656s70.656 31.744 70.656 70.656V788.48c0 37.888-31.744 69.632-70.656 69.632z m0-791.552c-21.504 0-39.936 17.408-39.936 39.936V788.48c0 21.504 17.408 39.936 39.936 39.936s39.936-17.408 39.936-39.936V106.496c0-22.528-18.432-39.936-39.936-39.936z" fill="#0F0F0F" p-id="5434"></path><path d="M796.672 842.752h-532.48V51.2h532.48c26.624 0 49.152 21.504 49.152 49.152v694.272c-1.024 26.624-22.528 48.128-49.152 48.128z" fill="#FDC300" p-id="5435"></path><path d="M796.672 858.112h-532.48c-8.192 0-15.36-7.168-15.36-15.36V51.2c0-8.192 7.168-15.36 15.36-15.36h532.48c35.84 0 64.512 28.672 64.512 64.512v694.272c-1.024 34.816-29.696 63.488-64.512 63.488z m-517.12-30.72h517.12c18.432 0 33.792-15.36 33.792-33.792V100.352c0-18.432-15.36-33.792-33.792-33.792H279.552v760.832z" fill="#0F0F0F" p-id="5436"></path><path d="M423.936 1003.52l-73.728-55.296c-4.096-3.072-9.216-3.072-13.312 0L264.192 1003.52V842.752h160.768V1003.52z" fill="#ED3A35" p-id="5437"></path><path d="M423.936 1018.88c-3.072 0-6.144-1.024-9.216-3.072L344.064 962.56l-70.656 53.248c-5.12 3.072-11.264 4.096-16.384 1.024-5.12-3.072-8.192-8.192-8.192-13.312V842.752c0-8.192 7.168-15.36 15.36-15.36h160.768c8.192 0 15.36 7.168 15.36 15.36V1003.52c0 6.144-3.072 11.264-8.192 13.312-3.072 1.024-5.12 2.048-8.192 2.048z m-79.872-88.064c5.12 0 11.264 2.048 15.36 5.12l49.152 36.864V858.112H279.552V972.8l49.152-36.864c4.096-3.072 10.24-5.12 15.36-5.12z m-3.072 29.696z m6.144 0z" fill="#0F0F0F" p-id="5438"></path><path d="M544.768 291.84m-90.112 0a90.112 90.112 0 1 0 180.224 0 90.112 90.112 0 1 0-180.224 0Z" fill="#9CFFFF" p-id="5439"></path><path d="M544.768 392.192c-55.296 0-100.352-45.056-100.352-100.352s45.056-100.352 100.352-100.352 100.352 45.056 100.352 100.352-45.056 100.352-100.352 100.352z m0-180.224c-44.032 0-79.872 35.84-79.872 79.872s35.84 79.872 79.872 79.872 79.872-35.84 79.872-79.872-35.84-79.872-79.872-79.872z" fill="#0F0F0F" p-id="5440"></path><path d="M645.12 497.664H444.416c-8.192 0-15.36-7.168-15.36-15.36s7.168-15.36 15.36-15.36H645.12c8.192 0 15.36 7.168 15.36 15.36s-7.168 15.36-15.36 15.36z" fill="#0F0F0F" p-id="5441"></path><path d="M685.056 587.776H404.48c-8.192 0-15.36-7.168-15.36-15.36s7.168-15.36 15.36-15.36h280.576c8.192 0 15.36 7.168 15.36 15.36s-7.168 15.36-15.36 15.36z" fill="#0F0F0F" p-id="5442"></path></svg>