<?xml version="1.0" standalone="no"?><!DOCTYPE svg PUBLIC "-//W3C//DTD SVG 1.1//EN" "http://www.w3.org/Graphics/SVG/1.1/DTD/svg11.dtd"><svg class="icon" width="200px" height="200.00px" viewBox="0 0 1024 1024" version="1.1" xmlns="http://www.w3.org/2000/svg"><path fill="#1296db" d="M514.837943 597.343086c-22.7328 0-51.141486-11.410286-68.1984-28.4672a94.237257 94.237257 0 0 1-28.437943-68.256915c0-28.437943 11.381029-45.494857 28.437943-62.581028a103.687314 103.687314 0 0 1 136.426057 0c34.084571 34.143086 34.084571 96.724114 0 136.543086-22.762057 11.381029-45.494857 22.762057-68.227657 22.762057z m0-130.8672c-11.351771 0-17.056914 5.705143-28.408686 11.410285a43.476114 43.476114 0 0 0-11.381028 28.437943c0 11.351771 5.675886 17.056914 11.381028 28.437943 5.675886 5.675886 17.056914 11.381029 28.408686 11.381029 11.381029 0 17.056914-5.705143 28.437943-11.410286 17.027657-17.056914 17.027657-39.789714 0-51.2-11.381029-11.351771-22.762057-17.056914-28.437943-17.056914z"  /><path fill="#1296db" d="M844.536686 1001.237943c-136.426057 0-341.050514-119.456914-528.647315-312.875886-113.693257-119.486171-204.624457-250.324114-255.7952-369.810286C14.628571 193.448229 14.628571 96.753371 65.828571 39.848229c107.988114-102.4 386.516114 17.056914 630.930286 278.762057 250.119314 256 358.107429 540.437943 250.119314 642.837943-22.7328 28.437943-56.846629 39.818971-102.312228 39.818971zM173.787429 62.610286c-28.408686 0-51.170743 5.675886-68.1984 22.762057-34.113829 34.113829-28.437943 108.075886 11.351771 210.475886C162.4064 409.6 247.690971 529.056914 361.354971 648.543086c238.738286 250.294857 483.181714 341.313829 551.380115 273.056914 73.903543-68.256914-17.056914-318.581029-250.090057-563.2C475.048229 164.981029 281.746286 62.581029 173.787429 62.581029z"  /><path fill="#1296db" d="M173.787429 1001.237943c-45.4656 0-79.579429-11.381029-107.988115-39.789714-56.846629-51.2-56.846629-153.6-5.705143-278.791315 51.170743-113.781029 142.101943-244.589714 255.7952-364.075885C566.008686 62.581029 838.831543-62.610286 946.848914 39.789714c56.846629 51.2 56.846629 153.6 5.675886 278.762057-51.141486 119.456914-136.426057 250.294857-255.7952 369.781029-113.664 119.456914-244.414171 216.181029-358.107429 267.381029-56.846629 28.437943-113.664 45.494857-164.834742 45.494857zM844.536686 62.610286c-108.017371 0-301.2608 102.4-488.8576 295.818971-107.988114 113.781029-198.948571 238.943086-244.414172 352.724114-39.789714 102.4-45.4656 176.3328-11.381028 216.151772 34.113829 34.143086 113.693257 28.4672 210.3296-17.056914 107.988114-51.2 227.357257-142.218971 341.050514-256 107.988114-113.781029 198.948571-238.943086 244.414171-352.694858 39.789714-102.4 45.494857-176.362057 11.381029-216.210285-11.381029-17.056914-34.113829-22.7328-62.522514-22.7328z"  /></svg>