<?xml version="1.0" standalone="no"?><!DOCTYPE svg PUBLIC "-//W3C//DTD SVG 1.1//EN" "http://www.w3.org/Graphics/SVG/1.1/DTD/svg11.dtd"><svg class="icon" width="200px" height="200.00px" viewBox="0 0 1024 1024" version="1.1" xmlns="http://www.w3.org/2000/svg"><path d="M533.139402 623.250152c-37.510426 0-56.265639 28.029769-56.265639 70.280523q0 70.280523 56.265639 70.280523t56.265638-70.280523c-4.740329-41.220248-18.755213-65.540195-56.265638-70.280523z m0 0" fill="#B63532" /><path d="M734.706415 187.552129c23.495541 56.265639 28.029769 140.561046-18.755213 187.346028C636.396123 65.746296 434.416907 0 434.416907 0c23.495541 159.316259-84.295407 332.647403-192.086356 463.933893-4.740329-65.540195-9.274556-107.790949-41.220248-168.590815-9.274556 117.065505-93.776065 210.841569-121.805834 323.372847-18.755213 98.310292-4.740329 187.346028 65.540195 267.931613 112.531277 107.790949 402.927926 243.611667 698.064903 4.740328C1114.551002 613.975596 800.24661 234.955415 734.706415 187.552129z m-337.387731 618.303723h-51.52531v-88.829635H252.017309v89.035736h-51.52531V585.327524h51.52531v89.035736h98.310292V585.327524h51.52531v220.734429z m135.820718 4.740328q-105.523835-7.007442-112.531278-112.531277c4.740329-75.020852 41.220248-112.531277 112.531278-117.065505 70.280523 4.740329 103.05062 41.220248 107.790949 117.065505 0 70.280523-37.510426 107.790949-107.790949 112.531277z m253.092323-182.811801v182.811801h-51.52531v-182.605699h-70.280523V585.327524h192.086356v41.220248z m0 0" fill="#B63532" /><path d="M786.437827 810.59618v-182.811801h70.074421v-42.044653h-192.086356v42.044653h70.280523v182.811801h51.731412zM420.814225 698.271004q7.007442 105.523835 112.531278 112.531277c70.280523-4.740329 107.790949-41.220248 107.790949-112.531277-4.740329-75.020852-37.510426-112.531277-107.790949-117.065505-70.486624 4.122025-107.790949 42.044653-112.531278 117.065505z m168.590815-4.740329q0 70.280523-56.265638 70.280523t-56.265639-70.280523c0-41.220248 18.755213-70.280523 56.265639-70.280523 37.510426 4.740329 51.731411 28.029769 56.265638 70.280523zM397.524785 805.855852h4.534228V585.739726h-51.525311v89.035736H252.22341v-89.035736h-51.52531V805.855852h51.52531v-89.035737h93.569964v89.035737h51.731411z" fill="#FFFFFF" /></svg>