<?xml version="1.0" standalone="no"?><!DOCTYPE svg PUBLIC "-//W3C//DTD SVG 1.1//EN" "http://www.w3.org/Graphics/SVG/1.1/DTD/svg11.dtd"><svg class="icon" width="200px" height="107.73px" viewBox="0 0 1901 1024" version="1.1" xmlns="http://www.w3.org/2000/svg"><path d="M1389.714286 1024a512 512 0 0 0 0-1024H512a512 512 0 0 0-512 512v512h1389.714286z" fill="#E4C473" /><path d="M219.428571 302.226286h74.459429v207.725714H549.302857v-207.725714h74.459429v492.690285H549.302857v-220.891428H293.888v220.891428H219.428571V302.226286zM935.131429 292.571429c73.728 0 132.461714 24.137143 175.542857 73.142857 40.96 46.226286 61.44 107.666286 61.44 183.588571 0 75.117714-20.48 135.899429-61.44 182.857143-43.081143 48.274286-101.814857 72.411429-175.542857 72.411429-74.459429 0-133.12-24.868571-175.542858-73.142858-40.96-46.884571-60.708571-107.666286-60.708571-182.125714 0-75.264 19.748571-136.045714 60.708571-182.930286 42.422857-49.664 101.083429-73.801143 175.542858-73.801142z m0 66.267428c-51.931429 0-92.16 17.188571-120.905143 53.101714-27.282286 33.792-40.96 79.36-40.96 137.289143 0 57.270857 13.677714 102.838857 40.96 136.630857 28.672 34.523429 68.973714 52.443429 120.905143 52.443429 51.931429 0 92.16-17.261714 120.246857-51.053714 27.282286-33.133714 41.618286-79.36 41.618285-138.020572 0-59.245714-14.336-105.545143-41.691428-139.337143-28.013714-34.523429-68.242286-51.053714-120.246857-51.053714h0.073143z m274.505142-56.612571H1609.142857v64.146285h-162.523428v428.617143H1372.891429v-428.617143h-163.254858v-64.146285z" fill="#FFFFFF" /></svg>