<?xml version="1.0" standalone="no"?><!DOCTYPE svg PUBLIC "-//W3C//DTD SVG 1.1//EN" "http://www.w3.org/Graphics/SVG/1.1/DTD/svg11.dtd"><svg class="icon" width="200px" height="200.00px" viewBox="0 0 1024 1024" version="1.1" xmlns="http://www.w3.org/2000/svg"><path d="M557.292308 78.769231c-19.692308 0-39.384615 5.907692-57.107693 15.753846-15.753846-9.846154-35.446154-15.753846-55.138461-15.753846C384 78.769231 334.769231 129.969231 334.769231 191.015385c0 98.461538 137.846154 189.046154 153.6 198.892307 3.938462 3.938462 9.846154 3.938462 15.753846 3.938462 5.907692 0 9.846154-1.969231 15.753846-3.938462 15.753846-9.846154 151.630769-98.461538 151.630769-198.892307C669.538462 129.969231 618.338462 78.769231 557.292308 78.769231z m-55.138462 250.092307C454.892308 295.384615 393.846154 236.307692 393.846154 191.015385 393.846154 161.476923 415.507692 137.846154 445.046154 137.846154c7.876923 0 17.723077 1.969231 25.6 7.876923 9.846154 5.907692 19.692308 7.876923 31.507692 7.876923 9.846154 0 21.661538-1.969231 31.507692-7.876923 5.907692-5.907692 15.753846-7.876923 23.63077-7.876923C586.830769 137.846154 610.461538 161.476923 610.461538 191.015385c0 45.292308-61.046154 104.369231-108.307692 137.846153z" fill="#12B9FF" /><path d="M872.369231 196.923077c-35.446154 0-64.984615 25.6-70.892308 61.046154l-23.630769 145.723077c-23.630769-19.692308-55.138462-23.630769-82.707692-7.876923l-1.969231 1.96923-163.446154 112.246154c-9.846154 5.907692-17.723077 15.753846-25.6 23.630769-7.876923-9.846154-15.753846-17.723077-25.6-23.630769L315.076923 397.784615l-1.969231-1.96923c-27.569231-13.784615-59.076923-11.815385-82.707692 7.876923l-23.630769-145.723077c-9.846154-35.446154-39.384615-61.046154-74.830769-61.046154-39.384615 0-72.861538 31.507692-72.861539 72.861538v232.369231c0 33.476923 13.784615 66.953846 37.415385 90.584616l72.861538 72.861538c70.892308 70.892308 122.092308 161.476923 145.723077 257.969231 3.938462 13.784615 15.753846 21.661538 29.538462 21.661538h7.876923c15.753846-3.938462 25.6-19.692308 21.661538-35.446154-27.569231-108.307692-82.707692-206.769231-161.476923-285.538461L137.846154 549.415385c-13.784615-13.784615-19.692308-29.538462-19.692308-49.23077V269.784615c0-7.876923 5.907692-13.784615 13.784616-13.784615 5.907692 0 11.815385 3.938462 13.784615 11.815385L177.230769 466.707692c1.969231 5.907692 3.938462 13.784615 9.846154 17.723077l37.415385 31.507693 100.430769 86.646153c11.815385 9.846154 31.507692 9.846154 41.353846-3.938461 5.907692-5.907692 7.876923-13.784615 7.876923-21.661539 0-5.907692-1.969231-11.815385-5.907692-15.753846-1.969231-1.969231-1.969231-3.938462-3.938462-3.938461L263.876923 472.615385c-3.938462-3.938462-5.907692-9.846154-5.907692-11.815385 0-1.969231 0-7.876923 3.938461-11.815385 3.938462-3.938462 11.815385-5.907692 17.723077-3.938461l161.476923 110.276923c19.692308 13.784615 29.538462 33.476923 29.538462 57.107692v165.415385c0 15.753846 13.784615 29.538462 29.538461 29.538461s29.538462-13.784615 29.538462-29.538461v-165.415385c0-23.630769 11.815385-43.323077 29.538461-57.107692l161.476924-110.276923c5.907692-1.969231 13.784615-1.969231 17.723076 3.938461 3.938462 3.938462 3.938462 9.846154 3.938462 11.815385 0 1.969231 0 7.876923-5.907692 11.815385l-100.43077 86.646153-3.938461 3.938462c-3.938462 3.938462-5.907692 9.846154-5.907692 15.753846 0 7.876923 1.969231 15.753846 7.876923 21.661539 9.846154 11.815385 29.538462 13.784615 41.353846 3.938461l100.430769-86.646154 37.415385-31.507692c5.907692-3.938462 7.876923-9.846154 9.846154-17.723077l33.476923-200.861538c1.969231-5.907692 5.907692-11.815385 13.784615-11.815385 7.876923 0 13.784615 5.907692 13.784615 13.784615v232.369231c0 17.723077-7.876923 35.446154-19.692307 49.230769l-72.861539 72.861539c-78.769231 78.769231-135.876923 177.230769-161.476923 285.538461-3.938462 15.753846 5.907692 31.507692 21.661539 35.446154h7.876923c13.784615 0 25.6-9.846154 29.538461-21.661538 23.630769-98.461538 74.830769-187.076923 145.723077-257.969231l72.861539-72.861538c23.630769-23.630769 37.415385-57.107692 37.415384-90.584616V269.784615c0-41.353846-31.507692-72.861538-72.861538-72.861538z" fill="#4069FF" /><path d="M445.046154 157.538462c-17.723077 0-31.507692 15.753846-31.507692 33.476923 0 31.507692 43.323077 78.769231 88.615384 112.246153 45.292308-35.446154 88.615385-82.707692 88.615385-112.246153 0-17.723077-15.753846-33.476923-33.476923-33.476923-5.907692 0-9.846154 1.969231-15.753846 3.938461-25.6 15.753846-57.107692 15.753846-82.707693 0-3.938462-1.969231-7.876923-3.938462-13.784615-3.938461z" fill="#E6F3FF" /></svg>