<?xml version="1.0" standalone="no"?><!DOCTYPE svg PUBLIC "-//W3C//DTD SVG 1.1//EN" "http://www.w3.org/Graphics/SVG/1.1/DTD/svg11.dtd"><svg class="icon" width="200px" height="200.00px" viewBox="0 0 1024 1024" version="1.1" xmlns="http://www.w3.org/2000/svg"><path fill="#1296db" d="M511.963429 0.182857C229.888 0.182857 0.438857 229.668571 0.438857 511.707429 0.438857 793.782857 229.888 1023.268571 512 1023.268571c282.038857 0 511.488-229.449143 511.488-511.524571C1023.451429 229.668571 794.002286 0.182857 512 0.182857z m0 937.801143c-235.044571 0-426.276571-191.232-426.276572-426.276571C85.686857 276.662857 276.955429 85.467429 512 85.467429c235.044571 0 426.24 191.195429 426.24 426.24S747.008 937.984 512 937.984z"  /><path fill="#1296db" d="M710.070857 637.074286l-176.786286-102.253715V255.963429a42.642286 42.642286 0 0 0-85.248 0v298.386285c0 15.798857 19.638857 29.037714 32.402286 36.388572 3.547429 5.339429 13.275429 10.130286 19.2 13.531428l175.835429 106.605715c20.370286 11.739429 42.422857 4.754286 54.198857-15.616 11.776-20.370286 0.841143-46.445714-19.602286-58.185143z"  /></svg>