<?xml version="1.0" standalone="no"?><!DOCTYPE svg PUBLIC "-//W3C//DTD SVG 1.1//EN" "http://www.w3.org/Graphics/SVG/1.1/DTD/svg11.dtd"><svg class="icon" width="200px" height="200.00px" viewBox="0 0 1024 1024" version="1.1" xmlns="http://www.w3.org/2000/svg"><path d="M811.89888 603.19744c-61.19936 73.40032-177.50016 189.70112-275.39968 195.79904v85.69856h165.20192c12.20096 0 30.60224 18.40128 30.60224 30.60224s-12.20096 30.60224-24.4992 30.60224H310.20032c-12.20096 0-24.4992-18.40128-24.4992-30.60224s18.40128-30.60224 30.60224-30.60224h165.20192v-85.69856c-91.8016 0-220.29824-122.39872-275.39968-195.79904-79.60064 0-134.59968-55.10144-140.6976-165.20192V272.79872c0-24.4992 6.09792-30.60224 30.60224-30.60224H181.7088v-140.6976c0-12.20096 0-18.40128 18.40128-24.4992h611.90144c18.40128 6.09792 24.4992 12.20096 30.60224 30.60224v140.6976h85.69856c24.4992 0 30.60224 12.20096 30.60224 30.60224v165.20192c-12.3136 97.9968-49.01376 159.09376-147.01568 159.09376zM175.60064 438.00064v-140.6976H120.4992v140.6976c0 55.10144 12.20096 103.99744 55.10144 110.10048V438.00064z m605.7984-281.50272c0-12.20096-18.40128-30.60224-30.60224-30.60224H255.09888c-12.20096 0-30.60224 18.40128-30.60224 30.60224v312.09984c12.20096 153.00096 159.09888 275.39968 281.4976 269.30176 153.00096-6.09792 269.19936-128.50176 275.39968-269.19936V156.49792z m110.10048 281.50272v-140.6976c0-6.09792 0 0 0 0h-55.10144v250.90048c30.60224-6.10304 61.19936-30.60224 55.10144-110.20288z m0-140.70272" fill="#3399FF" /><path d="M622.30016 572.6976l-116.3008-55.10144-122.39872 55.10144 18.40128-128.59904-91.8016-91.8016 134.59968-24.4992L505.99936 217.7024l61.19936 110.10048 128.50176 24.4992-85.69856 91.8016 12.29824 128.59392z m-91.8016-195.89632l-24.4992-48.90112-24.4992 48.90112-61.19936 12.20096 42.79808 42.79808-6.09792 61.19936 48.9984-30.60224 48.9984 30.60224-6.09792-61.19936 36.70016-42.79808-55.10144-12.20096z" fill="#F26F91" /></svg>